<?xml version="1.0" encoding="utf-8"?>
<svg viewBox="44.100006103515625 55.30000305175781 176.40000915527344 176.3999786376953" width="176.40000915527344" height="176.3999786376953" xmlns="http://www.w3.org/2000/svg"><g transform="matrix(1, 0, 0, 1, 5.684341886080802e-14, 0)"><g transform="matrix(1, 0, 0, 1, 5.684341886080802e-14, 0)">
	<path d="M 220.5 143.5 A 88.199997 88.199997 0 0 1 132.300003 231.699997 A 88.199997 88.199997 0 0 1 44.100006 143.5 A 88.199997 88.199997 0 0 1 132.300003 55.300003 A 88.199997 88.199997 0 0 1 220.5 143.5 Z" class="st1" style="fill: rgb(160, 184, 57);"/>
</g><g transform="matrix(1, 0, 0, 1, 5.684341886080802e-14, 0)">
	<path class="st2" d="M128.4,187.4c-2,0-4-0.8-5.5-2.2L87.1,152c-3.3-3.1-3.5-8.2-0.4-11.5c3.1-3.3,8.2-3.5,11.5-0.4l28.5,26.4&#10;&#9;&#9;l38.3-63c2.3-3.8,7.3-5.1,11.2-2.7c3.8,2.3,5.1,7.3,2.7,11.2l-43.4,71.6c-1.3,2.1-3.4,3.5-5.8,3.8&#10;&#9;&#9;C129.2,187.4,128.8,187.4,128.4,187.4z" style="fill: rgb(255, 255, 255);"/>
</g></g></svg>